<?xml version="1.0" encoding="utf-8"?>
<!-- Generator: Adobe Illustrator 21.0.0, SVG Export Plug-In . SVG Version: 6.00 Build 0)  -->
<svg version="1.1" id="Layer_1" xmlns="http://www.w3.org/2000/svg" xmlns:xlink="http://www.w3.org/1999/xlink" x="0px" y="0px"
	 viewBox="0 0 3600 1884" style="enable-background:new 0 0 3600 1884;" xml:space="preserve">
<style type="text/css">
	.st0{fill:#494C63;}
	.st1{fill:#8987A8;}
	.st2{fill:#C6B895;}
	.st3{fill:#6B6E8C;}
	.st4{fill:#D3C9AE;}
	.st5{fill:#BCC0D6;}
	.st6{fill:#FEDBD3;}
	.st7{fill:#A49FA5;}
	.st8{fill:#FDC7BC;}
	.st9{fill:#FFFFFF;}
	.st10{fill:#FDCDC3;}
	.st11{fill:#FCA997;}
	.st12{fill:#535073;}
	.st13{fill:#292B3B;}
	.st14{fill:#BCF0F2;}
	.st15{fill:#D6D3D6;}
	.st16{opacity:0.29;fill:#FBE3B9;}
	.st17{fill:#FBD89C;}
	.st18{fill:#FBE3B9;}
	.st19{fill:#70A9C2;}
	.st20{fill:#A6C9D9;}
	.st21{fill:#589AB8;}
	.st22{fill:#458FB0;}
	.st23{opacity:0.1;fill:#FEDBD3;}
	.st24{opacity:0.79;}
	.st25{fill:none;stroke:#D4D3ED;stroke-width:7.2086;stroke-miterlimit:10;}
	.st26{fill:#A09EC4;}
</style>
<g>
	<path class="st0" d="M2620.19,593.31c-71.58,0-140.82,9.93-206.46,28.44c-168.78-217.32-432.57-357.21-729.06-357.21
		c-439.77,0-807.61,307.68-900.12,719.49c-12.09-2.53-24.62-3.88-37.46-3.88c-100.37,0-181.73,81.36-181.73,181.73
		c0,12.47,1.26,24.64,3.65,36.41c-199.77,51.34-347.39,232.66-347.39,448.45c0,86.73,23.85,167.88,65.34,237.27h2872.92
		c135.09-136.92,218.49-324.96,218.49-532.5C3378.38,932.76,3038.92,593.31,2620.19,593.31z"/>
	<g>
		<g>
			<path class="st1" d="M2583.9,1500.18c0.04-0.85,3.97-86.38,28.96-205.94c14.67-70.21,33.63-138.31,56.35-202.4
				c28.42-80.18,62.84-154.3,102.3-220.3l11.12,6.65c-88.42,147.87-134.23,309.31-157.09,418.71
				c-24.77,118.55-28.66,203.01-28.7,203.85L2583.9,1500.18z"/>
		</g>
		<g>
			<path class="st1" d="M2798.35,799.99c-26.4,45.82-31.48,92.37-31.48,92.37s37.73-27.73,64.13-73.55
				c26.4-45.82,31.48-92.37,31.48-92.37S2824.75,754.18,2798.35,799.99z"/>
		</g>
		<g>
			<path class="st1" d="M2700.47,849.68c13.76,51.06,43.11,87.54,43.11,87.54s7.04-46.29-6.72-97.35s-43.11-87.54-43.11-87.54
				S2686.71,798.62,2700.47,849.68z"/>
		</g>
		<g>
			<path class="st1" d="M2841.67,941.06c52.64-5.01,93.53-27.82,93.53-27.82s-44.46-14.7-97.1-9.7
				c-52.64,5.01-93.53,27.82-93.53,27.82S2789.03,946.07,2841.67,941.06z"/>
		</g>
		<g>
			<path class="st1" d="M2802.03,1036.91c51.84,10.41,97.58,0.38,97.58,0.38s-38.32-26.92-90.16-37.33
				c-51.84-10.41-97.58-0.38-97.58-0.38S2750.19,1026.5,2802.03,1036.91z"/>
		</g>
		<g>
			<path class="st1" d="M2764.07,1132.04c52.56,5.79,97.23-8.24,97.23-8.24s-40.54-23.43-93.1-29.22
				c-52.56-5.79-97.23,8.24-97.23,8.24S2711.51,1126.25,2764.07,1132.04z"/>
		</g>
		<g>
			<path class="st1" d="M2734.55,1225.31c52.74,3.89,96.87-11.74,96.87-11.74s-41.36-21.95-94.1-25.84
				c-52.74-3.89-96.87,11.74-96.87,11.74S2681.82,1221.42,2734.55,1225.31z"/>
		</g>
		<g>
			<path class="st1" d="M2712.23,1338.67c51.84,10.41,97.58,0.38,97.58,0.38s-38.32-26.92-90.16-37.33
				c-51.84-10.41-97.58-0.38-97.58-0.38S2660.38,1328.26,2712.23,1338.67z"/>
		</g>
		<g>
			<path class="st1" d="M2638.34,941.99c32.04,42.07,73,64.75,73,64.75s-10.98-45.52-43.02-87.59c-32.04-42.07-73-64.75-73-64.75
				S2606.31,899.92,2638.34,941.99z"/>
		</g>
		<g>
			<path class="st1" d="M2550.27,1170.36c46.2,25.73,92.82,30.13,92.82,30.13s-28.28-37.32-74.47-63.06s-92.81-30.13-92.81-30.13
				S2504.08,1144.63,2550.27,1170.36z"/>
		</g>
		<g>
			<path class="st1" d="M2522.46,1297.14c51.16,13.36,97.4,5.96,97.4,5.96s-36.71-29.07-87.88-42.43
				c-51.16-13.36-97.4-5.96-97.4-5.96S2471.3,1283.78,2522.46,1297.14z"/>
		</g>
		<g>
			<path class="st1" d="M2590.46,1054.5c38.08,36.69,82.02,52.86,82.02,52.86s-17.79-43.31-55.87-80
				c-38.08-36.69-82.03-52.86-82.03-52.86S2552.38,1017.81,2590.46,1054.5z"/>
		</g>
	</g>
	<g>
		<path class="st1" d="M2202.11,1471.44c-77.54,0-142.93,52.01-163.21,123.04h326.41
			C2345.04,1523.44,2279.65,1471.44,2202.11,1471.44z"/>
		<path class="st1" d="M2435.23,1418.73c-110.76,0-204.16,74.28-233.12,175.75h466.24
			C2639.39,1493.01,2545.99,1418.73,2435.23,1418.73z"/>
	</g>
	<g>
		<g>
			<path class="st2" d="M746.8,981.97c0,0-13.81-37.83,6.79-82.34c20.6-44.51-14.81-67.03-34.45-53.29
				C699.51,860.08,687.22,910.36,746.8,981.97z"/>
		</g>
		<g>
			<path class="st2" d="M780.6,1011.57c0,0,13.49-37.95,57.75-59.09c44.26-21.14,31.35-61.07,7.46-63.01
				C821.92,887.54,780.39,918.42,780.6,1011.57z"/>
		</g>
		<g>
			<path class="st2" d="M776.22,1015.4c0,0-40.14-3.25-77.57,28.45c-37.43,31.7-68.56,3.55-60.53-19.03
				C646.14,1002.24,691.34,977.02,776.22,1015.4z"/>
		</g>
		<g>
			<path class="st2" d="M825.69,1084.52c0,0-40.14-3.25-77.57,28.45c-37.43,31.7-68.56,3.55-60.53-19.03
				C695.62,1071.35,740.82,1046.13,825.69,1084.52z"/>
		</g>
		<g>
			<path class="st2" d="M853.99,1157.92c0,0-40.14-3.25-77.57,28.45c-37.43,31.7-68.56,3.55-60.53-19.03
				C723.91,1144.75,769.11,1119.53,853.99,1157.92z"/>
		</g>
		<g>
			<path class="st2" d="M885.09,1250.27c0,0-40.14-3.25-77.57,28.45c-37.43,31.7-68.56,3.55-60.53-19.03
				C755.01,1237.11,800.21,1211.89,885.09,1250.27z"/>
		</g>
		<g>
			<path class="st2" d="M825.15,1083.99c0,0,13.49-37.95,57.75-59.09c44.26-21.14,31.35-61.07,7.46-63.01
				C866.46,959.95,824.93,990.84,825.15,1083.99z"/>
		</g>
		<g>
			<path class="st2" d="M860.19,1164.8c0,0,13.49-37.95,57.75-59.09c44.26-21.14,31.35-61.07,7.46-63.01
				C901.5,1040.76,859.97,1071.65,860.19,1164.8z"/>
		</g>
		<g>
			<path class="st2" d="M887.98,1248.7c0,0,13.49-37.95,57.75-59.09c44.26-21.14,31.35-61.07,7.46-63.01
				C929.3,1124.67,887.77,1155.55,887.98,1248.7z"/>
		</g>
		<g>
			<path class="st2" d="M927.11,1625.9c-2.12-0.33-3.66-2.24-3.5-4.41c0.07-1.02,7.21-103.91-12.36-235.45
				c-18.03-121.17-63.07-292.15-175.21-418.61c-1.53-1.72-1.37-4.35,0.35-5.88c1.72-1.52,4.35-1.37,5.88,0.35
				c113.55,128.04,159.06,300.76,177.25,423.11c19.68,132.41,12.48,236.05,12.41,237.08c-0.17,2.29-2.16,4.01-4.45,3.85
				C927.34,1625.93,927.23,1625.92,927.11,1625.9z"/>
		</g>
	</g>
	<g>
		<g>
			<path class="st2" d="M529.83,1304.3c0,0-22.37-20.75-23.82-57.89c-1.46-37.13-33.12-40.11-41.62-24.06
				C455.88,1238.39,464.94,1276.55,529.83,1304.3z"/>
		</g>
		<g>
			<path class="st2" d="M562.84,1312.61c0,0-3.99-30.25,18.57-59.78s0.08-52.01-16.71-45.08
				C547.92,1214.68,530.56,1249.85,562.84,1312.61z"/>
		</g>
		<g>
			<path class="st2" d="M561.21,1316.7c0,0-28.2,11.66-42.51,45.95c-14.31,34.3-45.02,26.05-47.4,8.05
				C468.92,1352.7,490.71,1320.09,561.21,1316.7z"/>
		</g>
		<g>
			<path class="st2" d="M618.42,1346.25c0,0-28.2,11.66-42.51,45.95c-14.31,34.3-45.02,26.05-47.4,8.05
				C526.14,1382.25,547.93,1349.65,618.42,1346.25z"/>
		</g>
		<g>
			<path class="st2" d="M662.83,1386.01c0,0-28.2,11.66-42.51,45.95c-14.31,34.3-45.02,26.05-47.4,8.05
				C570.55,1422,592.34,1389.4,662.83,1386.01z"/>
		</g>
		<g>
			<path class="st2" d="M715.67,1437.57c0,0-28.2,11.66-42.51,45.95c-14.31,34.3-45.02,26.05-47.4,8.05
				C623.39,1473.57,645.18,1440.96,715.67,1437.57z"/>
		</g>
		<g>
			<path class="st2" d="M617.87,1346.09c0,0-3.99-30.25,18.57-59.78c22.56-29.53,0.08-52.01-16.71-45.08
				C602.95,1248.17,585.59,1283.33,617.87,1346.09z"/>
		</g>
		<g>
			<path class="st2" d="M669.39,1388.51c0,0-3.99-30.25,18.57-59.78s0.08-52.01-16.71-45.08
				C654.47,1290.59,637.11,1325.75,669.39,1388.51z"/>
		</g>
		<g>
			<path class="st2" d="M717.08,1435.52c0,0-3.99-30.25,18.57-59.78s0.08-52.01-16.71-45.08
				C702.16,1337.6,684.8,1372.76,717.08,1435.52z"/>
		</g>
		<g>
			<path class="st2" d="M873.61,1676.45c-1.54,0.51-3.24-0.25-3.88-1.77c-0.3-0.72-30.99-72.58-89.57-154.55
				c-53.96-75.51-143.33-175.31-262.61-221.93c-1.62-0.63-2.42-2.46-1.79-4.09c0.63-1.62,2.46-2.42,4.09-1.79
				c120.77,47.19,211.05,148,265.53,224.25c58.96,82.52,89.85,154.92,90.16,155.64c0.68,1.6-0.07,3.45-1.68,4.13
				C873.77,1676.4,873.69,1676.43,873.61,1676.45z"/>
		</g>
	</g>
	<path class="st3" d="M2638.1,1686.18H961.9c-30.98,0-56.09-25.11-56.09-56.09v0c0-30.98,25.11-56.09,56.09-56.09H2638.1
		c30.98,0,56.09,25.11,56.09,56.09v0C2694.19,1661.07,2669.07,1686.18,2638.1,1686.18z"/>
	<g>
		<path class="st2" d="M3036.98,1501.93c-112.37,68.47-249.29,48.77-249.29,48.77l406.93-247.96
			C3194.62,1302.74,3149.35,1433.46,3036.98,1501.93z"/>
		<path class="st4" d="M3194.62,1302.74l-406.93,247.96c0,0,45.27-130.71,157.64-199.19
			C3057.7,1283.04,3194.62,1302.74,3194.62,1302.74z"/>
	</g>
	<g>
		<path class="st2" d="M2953.48,1357.42c-51.54,121.08-174.35,184.74-174.35,184.74l186.63-438.46
			C2965.76,1103.7,3005.02,1236.34,2953.48,1357.42z"/>
		<path class="st4" d="M2965.76,1103.7l-186.63,438.46c0,0-39.26-132.64,12.28-253.72
			C2842.95,1167.36,2965.76,1103.7,2965.76,1103.7z"/>
	</g>
	<g>
		<path class="st5" d="M358.45,436.16c-107.48,0-198.12,72.09-226.22,170.55h452.44C556.57,508.25,465.93,436.16,358.45,436.16z"/>
		<path class="st5" d="M975.61,436.16c-107.48,0-198.12,72.09-226.22,170.55h452.44C1173.73,508.25,1083.09,436.16,975.61,436.16z"
			/>
		<path class="st5" d="M681.58,363.1c-153.52,0-282.99,102.97-323.13,243.61h646.27C964.57,466.07,835.1,363.1,681.58,363.1z"/>
	</g>
	<g>
		<path class="st1" d="M400.75,583.08c-52.09,0-96.02,34.94-109.64,82.65h219.27C496.76,618.02,452.84,583.08,400.75,583.08z"/>
		<path class="st1" d="M699.85,583.08c-52.09,0-96.02,34.94-109.64,82.65h219.27C795.86,618.02,751.94,583.08,699.85,583.08z"/>
		<path class="st1" d="M557.35,547.68c-74.4,0-137.15,49.9-156.6,118.06h313.2C694.5,597.58,631.75,547.68,557.35,547.68z"/>
	</g>
	<g>
		<path class="st6" d="M2675.84,265.63c-74.55,0-137.41,50-156.9,118.29h313.8C2813.25,315.63,2750.38,265.63,2675.84,265.63z"/>
		<path class="st6" d="M3103.89,265.63c-74.55,0-137.41,50-156.9,118.29h313.8C3241.3,315.63,3178.43,265.63,3103.89,265.63z"/>
		<path class="st6" d="M2899.95,214.96c-106.48,0-196.28,71.41-224.12,168.96h448.24C3096.23,286.37,3006.44,214.96,2899.95,214.96z
			"/>
	</g>
	<g>
		<path class="st7" d="M2838.38,370.17c-30.31,0-55.88,20.33-63.8,48.1h127.6C2894.25,390.5,2868.69,370.17,2838.38,370.17z"/>
		<path class="st7" d="M3012.44,370.17c-30.31,0-55.88,20.33-63.8,48.1h127.6C3068.32,390.5,3042.75,370.17,3012.44,370.17z"/>
		<path class="st7" d="M2929.51,349.56c-43.3,0-79.81,29.04-91.13,68.71h182.27C3009.33,378.6,2972.81,349.56,2929.51,349.56z"/>
	</g>
	<g>
		<path class="st5" d="M2038.64,297.28c-30.31,0-55.88,20.33-63.8,48.1h127.6C2094.52,317.61,2068.95,297.28,2038.64,297.28z"/>
		<path class="st5" d="M2212.7,297.28c-30.31,0-55.88,20.33-63.8,48.1h127.6C2268.58,317.61,2243.01,297.28,2212.7,297.28z"/>
		<path class="st5" d="M2129.77,276.67c-43.3,0-79.81,29.04-91.13,68.71h182.27C2209.59,305.71,2173.07,276.67,2129.77,276.67z"/>
	</g>
	<g>
		<path class="st7" d="M1135.03,204.74c-22.52,0-41.51,15.1-47.4,35.73h94.79C1176.54,219.85,1157.55,204.74,1135.03,204.74z"/>
		<path class="st7" d="M1264.33,204.74c-22.52,0-41.51,15.1-47.4,35.73h94.79C1305.84,219.85,1286.85,204.74,1264.33,204.74z"/>
		<path class="st7" d="M1202.73,189.44c-32.17,0-59.29,21.57-67.7,51.04h135.4C1262.02,211.01,1234.9,189.44,1202.73,189.44z"/>
	</g>
	<g>
		<path class="st8" d="M2431.19,719.4c-15.54,0-28.64,10.42-32.7,24.65h65.41C2459.83,729.82,2446.73,719.4,2431.19,719.4z"/>
		<path class="st8" d="M2520.41,719.4c-15.54,0-28.64,10.42-32.7,24.65h65.41C2549.05,729.82,2535.94,719.4,2520.41,719.4z"/>
		<path class="st8" d="M2477.9,708.84c-22.19,0-40.91,14.89-46.71,35.22h93.43C2518.81,723.72,2500.09,708.84,2477.9,708.84z"/>
	</g>
	<g>
		<path class="st5" d="M2585.12,1528.47c-41.6,0-76.68,27.9-87.56,66.01h175.11C2661.8,1556.37,2626.71,1528.47,2585.12,1528.47z"/>
		<path class="st5" d="M2823.98,1528.47c-41.6,0-76.68,27.9-87.56,66.01h175.11C2900.67,1556.37,2865.58,1528.47,2823.98,1528.47z"
			/>
		<path class="st5" d="M2710.18,1500.19c-59.42,0-109.53,39.85-125.07,94.29h250.13C2819.71,1540.04,2769.6,1500.19,2710.18,1500.19
			z"/>
	</g>
	<g>
		<path class="st2" d="M887.86,1545.85c-92.13,0-169.82,61.79-193.9,146.18h387.81C1057.67,1607.63,979.98,1545.85,887.86,1545.85z"
			/>
		<path class="st2" d="M1416.85,1545.85c-92.13,0-169.82,61.79-193.9,146.18h387.81
			C1586.67,1607.63,1508.98,1545.85,1416.85,1545.85z"/>
		<path class="st2" d="M1164.83,1483.22c-131.59,0-242.56,88.26-276.97,208.8h553.94
			C1407.39,1571.48,1296.42,1483.22,1164.83,1483.22z"/>
	</g>
	<g>
		<path class="st7" d="M1005.72,1650.42c-52.09,0-96.02,34.93-109.64,82.65h219.27C1101.73,1685.36,1057.8,1650.42,1005.72,1650.42z
			"/>
		<path class="st7" d="M1304.82,1650.42c-52.09,0-96.02,34.93-109.64,82.65h219.27C1400.83,1685.36,1356.9,1650.42,1304.82,1650.42z
			"/>
		<path class="st7" d="M1162.32,1615.02c-74.4,0-137.15,49.9-156.6,118.06h313.2C1299.47,1664.92,1236.72,1615.02,1162.32,1615.02z"
			/>
	</g>
	<path class="st9" d="M1777.53,602.15c16.53,0,29.93-13.4,29.93-29.93c0,16.53,13.4,29.93,29.93,29.93
		c-16.53,0-29.93,13.4-29.93,29.93C1807.46,615.55,1794.06,602.15,1777.53,602.15z"/>
	<path class="st9" d="M2198.55,536.35c9.22,0,16.7-7.48,16.7-16.7c0,9.22,7.48,16.7,16.7,16.7c-9.22,0-16.7,7.48-16.7,16.7
		C2215.25,543.83,2207.78,536.35,2198.55,536.35z"/>
	<path class="st9" d="M1237.56,1415.84c9.22,0,16.7-7.48,16.7-16.7c0,9.22,7.48,16.7,16.7,16.7c-9.22,0-16.7,7.48-16.7,16.7
		C1254.26,1423.32,1246.79,1415.84,1237.56,1415.84z"/>
	<g>
		<path class="st10" d="M2419.87,946.19c0,183.99-149.16,333.15-333.15,333.15c-181.26,0-328.74-144.77-333.07-325
			c-0.07-2.71-0.1-5.42-0.1-8.15c0-72.57,23.21-139.75,62.63-194.48c60.48-83.99,159.13-138.69,270.54-138.69
			c95.81,0,182.19,40.45,242.95,105.21c49.14,52.36,81.56,120.6,88.7,196.2C2419.35,924.9,2419.87,935.49,2419.87,946.19z"/>
		<g>
			<path class="st11" d="M2119.61,870.69l-12.31,18.05l-23.8,20.51c0,0-3.42,34.46-6.64,36.93c-3.21,2.46,12.38,20.51,12.38,20.51
				l8.77,22.16l26.51,3.28l31.18-8.21l34.46,2.46l13.95,5.74l-13.13,24.62l22.16,33.64l-12.31,36.93l9.03,34.46l11.49,30.36
				c0,0-4.92,14.77,0,14.77c4.92,0,24.62,0,24.62,0l48.41-36.11v-41.03c0,0,28.72-34.46,30.36-36.93
				c1.64-2.46,11.49-39.39,11.49-39.39l26.26-30.36l-12.31-19.69l-20.51-5.74l-33.64-48.41l-11.49-28.72l-31.18-9.85l-23.8,13.13
				l-13.13-13.13l-13.13-12.31l-6.56-10.67l-36.93,11.49l-24.62-1.64L2119.61,870.69z"/>
			<path class="st11" d="M1875.9,977.37l-22.16,29.95l11.08,54.57l21.75,17.23l29.54,23.8l11.49,42.67l35.28,50.88
				c0,0,14.77,35.28,18.87,36.93c4.1,1.64,22.98,18.05,22.98,18.05l32.82-3.28v-10.67c0,0-25.44-26.26-27.08-29.54
				c-1.64-3.28-0.82-36.93,0-41.03c0.82-4.1,21.33-39.39,21.33-39.39l-5.74-25.44c0,0,18.05-24.62,18.05-28.72s-4.1-22.16-4.1-22.16
				l-4.92-30.95l-41.85-12.95l-31.18,3.69l-13.13-19.69l-34.46-4.1L1875.9,977.37z"/>
			<path class="st11" d="M2376.45,897.77l-13.93,6.57l23.78,22.97l-23.78,22.16h-21.34l-17.23-35.28l-22.16-19.69l-17.23-13.96
				l27.89-25.43l-27.89-7.39l-13.96-10.68c0,0-21.32,0-30.35,5.76c-9.03,5.74-20.78-9.03-20.78-9.03l-27.65-12.31l-14.77,3.27
				l-18.86,18.88h-23.8l-9.85,11.5l-21.34-15.61l18.07-18.04h29.54l5.74-9.03l-10.66-3.27l-0.84-9.03l13.96-4.92l-14.77-13.12
				l-11.5,3.27h-15.58v-8.2l24.62-14.77l22.16,22.97h8.2l11.5-10.66l11.5,3.27l20.51,7.39l19.69-4.09c0,0,23.8-22.16,23.8-24.62
				c0-2.46-11.5-8.22-11.5-8.22s-11.5,0-13.96,0s6.57-20.51,6.57-20.51l-20.78,10.66c0,0,1.9,14.77,0,18.07
				c-1.9,3.27-11.23,9.01-11.23,9.01s-18.88-13.93-21.34-11.47c-2.46,2.46-11.47,0-11.47,0l-7.39-13.96l19.69-4.92l9.85-14.77
				l35.28-22.16c0,0,16.42,2.46,22.16,5.74c5.74,3.3,17.23,4.92,17.23,4.92l-12.31,13.15l11.5,13.12h20.51l32.81-13.12l4.92-3.94
				c49.14,52.36,81.56,120.6,88.7,196.2l-9.92-3.54L2376.45,897.77z"/>
			<path class="st11" d="M1931.71,833.77c0,4.92-13.15,21.34-13.15,21.34l-20.51,9.85l-23.8,22.97l-4.09,40.2l-5.76,21.34h-18.04
				l-9.03-16.42l-17.23-4.92l-16.4,15.61l2.46,16.4c0,0,20.51,13.96,21.32,17.23c0.84,3.3,4.92,13.15,4.92,13.15l21.34,10.66v11.5
				l-43.5-22.99l-45.94-12.31l-10.66-23.02c-0.07-2.71-0.1-5.42-0.1-8.15c0-72.57,23.21-139.75,62.63-194.48l2.29-1.65l19.28,15.58
				v15.61l-11.08,9.85l-19.69,6.55v7.39l21.34-2.46l16.4-8.2l17.23-13.12h13.96l-11.5,10.66l-19.69,21.34l-13.12,18.04l6.15,13.12
				l11.89-5.74l0.84,9.03l8.2,10.66l11.5-22.16l4.92-22.16l18.04-10.66l10.66,4.92h20.53
				C1924.32,808.34,1931.71,828.84,1931.71,833.77z"/>
			<polygon class="st11" points="1914.47,727.91 1931.7,727.91 1931.7,743.5 1940.73,750.07 1944.01,788.64 1959.6,788.64 
				1971.09,765.66 1995.71,736.12 2013.76,723.81 2044.12,701.65 2048.22,672.93 2067.92,649.96 2049.86,643.39 2034.27,649.14 
				1991.19,669.65 1966.17,677.04 1939.09,690.99 1894.78,703.29 1872.62,716.01 1872.62,735.3 1853.75,750.07 1875.9,753.35 
				1890.67,741.04 1903.8,726.27 			"/>
		</g>
	</g>
	<path class="st9" d="M1699.06,712.86c9.22,0,16.7-7.48,16.7-16.7c0,9.22,7.48,16.7,16.7,16.7c-9.22,0-16.7,7.48-16.7,16.7
		C1715.76,720.33,1708.28,712.86,1699.06,712.86z"/>
	<path class="st9" d="M2094.92,1382.16c9.22,0,16.7-7.48,16.7-16.7c0,9.22,7.48,16.7,16.7,16.7c-9.22,0-16.7,7.48-16.7,16.7
		C2111.62,1389.63,2104.15,1382.16,2094.92,1382.16z"/>
	<path class="st9" d="M988.01,842.07c9.22,0,16.7-7.48,16.7-16.7c0,9.22,7.48,16.7,16.7,16.7c-9.22,0-16.7,7.48-16.7,16.7
		C1004.71,849.55,997.24,842.07,988.01,842.07z"/>
	<g>
		<path class="st12" d="M2140.01,614.65c0,0-6,19.84-35.6,26.28s-54.55,22.55-54.55,22.55l14.17-41.87
			C2064.03,621.61,2095.06,607.29,2140.01,614.65z"/>
		<g>
			<path class="st9" d="M2112.92,822.31c0.32-0.14,0.62-0.32,0.92-0.53c2.36-1.7,2.88-4.99,1.18-7.35l-22.17-30.67
				c-1.7-2.35-5-2.88-7.35-1.18c-2.36,1.7-2.88,4.99-1.18,7.35l22.17,30.67C2107.98,822.66,2110.69,823.32,2112.92,822.31z"/>
		</g>
		<path class="st13" d="M2117.32,813.53c0,0,10.43,9.22,7.97,11.39c-2.45,2.18-40.05,30.23-41.53,28.6
			c-5.03-5.55,22.45-33.14,25.96-34.68C2113.24,817.31,2115.85,812.16,2117.32,813.53z"/>
		<g>
			<path class="st12" d="M2127.76,603.84c-26.53,33.36-56.92,62.14-81.48,96.76c13.94,33.62,33.73,61.92,55.65,90.31
				c3.52,4.55,5.01,7.09,8.1,11.47c-7.03,1.62-12.92,4.24-20.55,5.4c-23.03-27.99-70.29-70.66-70.38-106.62
				c-0.09-35.96,31.45-59.7,49.05-81.08C2085.75,598.68,2105.21,605.53,2127.76,603.84z"/>
		</g>
		<g>
			<path class="st9" d="M2006.36,809.48c0.35-0.02,0.7-0.07,1.05-0.16c2.82-0.71,4.52-3.57,3.81-6.39l-9.27-36.69
				c-0.71-2.82-3.58-4.52-6.39-3.81c-2.82,0.71-4.52,3.57-3.81,6.39l9.27,36.69C2001.65,807.98,2003.92,809.6,2006.36,809.48z"/>
		</g>
		<path class="st13" d="M2009.64,797.53c0,0,10.7,8.9,8.32,11.15c-2.39,2.25-39.12,31.43-40.64,29.85
			c-5.19-5.39,21.43-33.81,24.89-35.45S2008.12,796.21,2009.64,797.53z"/>
		<g>
			<path class="st12" d="M2111.62,616.75c-38.08,19.15-77.74,32.53-114.55,53.65c-1.45,36.37,4.64,70.36,12.63,105.33
				c1.28,5.61,1.57,8.53,2.55,13.81c-7.07-1.48-13.51-1.58-20.92-3.72c-9.16-35.07-34.17-93.63-19.16-126.31
				c15-32.68,53.89-40.39,78.54-53.03C2104.41,578.95,2090.46,608.82,2111.62,616.75z"/>
		</g>
		<path class="st9" d="M1922.58,443.87c0,0-19.03-19.34-25.83-18.63c-6.8,0.71,9.23,21.16,25.11,25.28L1922.58,443.87z"/>
		<g>
			<path class="st2" d="M1926.77,441.58c-3.38,2.82-6.76,5.41-10.06,8.08c41.16,53.97,79.66,67.62,142.87,46.84
				c9.67-3.18,9.7-6.77,6.27-14.53c0.95-1.26,1-1.14,0,0c-3.43-7.77-6.02-8.52-15.84-5.31
				C1985.8,497.68,1975.87,487.44,1926.77,441.58z"/>
		</g>
		<path class="st14" d="M2036.16,483.58c5.65-18.67,19.53-26.69,38.46-16.87c6.33,3.28,10.09,6.01,18.11,13.41
			c38.1,35.1,45.31,77.79,43.75,129.86c-3.13,0.29-6.29,0.43-9.33-0.28c-5.52-1.29-10.13-5.21-15.63-6.54
			c-9.03-2.19-18.2,2.93-27.49,3.16c-3.25,0.08-6.38-0.43-9.4-1.37c2.83-34.89,0.28-74.1-26.44-92.72
			C2031.78,500.79,2035.85,484.59,2036.16,483.58z"/>
		<path class="st1" d="M2036.16,483.58c5.65-18.67,19.53-26.69,38.46-16.87c6.33,3.28,10.09,6.01,18.11,13.41
			c38.1,35.1,45.31,77.79,43.75,129.86c-3.13,0.29-6.29,0.43-9.33-0.28c-5.52-1.29-10.13-5.21-15.63-6.54
			c-9.03-2.19-18.2,2.93-27.49,3.16c-3.25,0.08-6.38-0.43-9.4-1.37c2.83-34.89,0.28-74.1-26.44-92.72
			C2031.78,500.79,2035.85,484.59,2036.16,483.58z"/>
		<path class="st9" d="M1996.16,625.11c0,0-23.78,13.06-24.95,19.79c-1.17,6.73,22.87-3.14,31.15-17.3L1996.16,625.11z"/>
		<path class="st2" d="M2041.97,485.36c-3.64,14.2,2.69,20.71,22.09,36.65c23.29,19.14,31.03,79.89,31.86,95.85
			c4.79-1.13,13.2-0.48,17.94,0.66c5.51,1.33,16.82,2.54,22.34,3.81c3.05,0.71,14.27,3.26,17.41,2.97
			c-4.48-57.16-22.77-110.1-60.87-145.2c-8.03-7.4-11.79-10.13-18.13-13.41c-11.49-5.96-21.14-5.35-28.19,0.26
			C2050,465.93,2046.73,466.75,2041.97,485.36z"/>
		<g>
			<path class="st2" d="M1995.1,620.45c1.79,4.02,3.37,7.98,5.04,11.88c63.12-24.95,92.08-58.74,83.9-124.76
				c-1.48-11.95-23.24-20.56-21.7,3.82C2066.61,578.81,2052.57,585.66,1995.1,620.45z"/>
		</g>
		<path class="st1" d="M2055.25,460.48c0,0,8.32-0.58,9.83,2.68c1.51,3.26-2.09,12.52-7.89,16.12c-5.81,3.6-12.46,4.59-15.42,7.27
			c-2.95,2.68-2.17-8.67-2.17-8.67s1.56-8,3.97-11.26C2045.98,463.35,2055.25,460.48,2055.25,460.48z"/>
		<path class="st9" d="M2049.03,442.39c-4.48,15.74-19.08,25.37-28.7,22.63c-9.62-2.74-10.61-16.82-6.13-32.55
			c4.48-15.74,14.56-21.52,24.18-18.78C2048,416.42,2053.51,426.65,2049.03,442.39z"/>
		<path class="st9" d="M2047.32,439.27l-16.27,5.53c0.76,2.23,8.32,23.28,12.58,30.58c1.64,2.1,6.01,1.42,9.77-1.51
			c3.38-2.64,5.08-6.19,4.21-8.41l0.02-0.01C2055.07,461.08,2049.97,447.06,2047.32,439.27z"/>
		<path class="st13" d="M2011.95,449.25c0,0,0.23,0.04,0.65,0.13c3.33,0.67,18.52,3.94,21.49,8.89c3.33,5.57-7.68-0.18-11.43-3.26
			c-3.74-3.08-6.67-1.6-9.7-1.56C2009.94,453.5,2007.6,450.42,2011.95,449.25z"/>
		<path class="st13" d="M2054.17,433.02c0,0-0.45-11.03-7.3-16.92c-6.85-5.89-22.23-9.59-29.49,3.42c0,0-4.31,9.72,7.85,13.92
			c12.16,4.21,11.32-2.84,16.13,4.6c4.81,7.44,11.27,4,12.11,5.66L2054.17,433.02z"/>
		<path class="st9" d="M2056.4,447.02c-1.04,3.66-6.02,7.31-8.67,6.56c-2.65-0.76-2.47-3.91-1.43-7.58
			c1.04-3.66,4.17-6.48,6.82-5.72C2055.78,441.04,2057.44,443.36,2056.4,447.02z"/>
		<path class="st13" d="M2042.43,449.34c-3.21-1.86-4.76,1.18-9.55,6.23c-4.78,5.05-15.42,7.4-20.33-5.95
			c-3.13-8.51-3.64,7.13-3.64,7.15c1.21,7.39,4.45,11.09,10.16,12.72c7.88,2.24,18.16-1.59,25.73-9.99
			C2045.2,455.56,2044.62,450.61,2042.43,449.34z"/>
		<path class="st13" d="M2023.7,428.73c0,0-7.24,5.2-15.39-1.52c0,0,0.3-0.89,2.62-0.49c2.31,0.4,0.71-6.94,2.92-9.46
			c3.94-4.49,10.97-4.53,13.07,2.72C2028.48,425.4,2023.7,428.73,2023.7,428.73z"/>
		<g>
			<polygon class="st11" points="2009.51,443.02 2012.06,433.81 1990.92,426.36 1987.55,438.53 			"/>
			<polygon class="st11" points="2012.06,433.81 2009.51,443.02 2015.36,446.23 2018.73,434.06 			"/>
			<polygon class="st5" points="1986.99,442.49 1992.48,422.67 1945.8,406.96 1938.87,431.96 			"/>
			<polygon class="st5" points="1940.59,436.9 1949.81,403.6 1871.39,377.21 1859.76,419.21 			"/>
			<path class="st11" d="M1863.05,424.71l14.07-50.81c0.55-2-0.62-4.07-2.62-4.62l-0.48-0.13c-4.42-1.22-8.99,1.37-10.21,5.78
				l-11.65,42.06c-1.22,4.42,1.37,8.99,5.78,10.21l0.48,0.13C1860.42,427.89,1862.49,426.71,1863.05,424.71z"/>
			
				<rect x="1924.46" y="416.66" transform="matrix(0.2668 -0.9637 0.9637 0.2668 1019.8611 2179.5972)" class="st11" width="36.02" height="5.67"/>
			<path class="st11" d="M1990.1,441.88l4.73-17.09c0.34-1.23-0.38-2.51-1.61-2.85l-3.24-0.9l-5.97,21.55l3.24,0.9
				C1988.48,443.84,1989.76,443.12,1990.1,441.88z"/>
		</g>
	</g>
	<g>
		<path class="st15" d="M566.58,1663.87c-28.09,0-51.78,18.84-59.12,44.57H625.7C618.36,1682.71,594.67,1663.87,566.58,1663.87z"/>
		<path class="st15" d="M727.87,1663.87c-28.09,0-51.78,18.84-59.12,44.57h118.24C779.65,1682.71,755.96,1663.87,727.87,1663.87z"/>
		<path class="st15" d="M651.03,1644.78c-40.12,0-73.96,26.91-84.45,63.66h168.9C724.99,1671.69,691.15,1644.78,651.03,1644.78z"/>
	</g>
	<g>
		<path class="st16" d="M1113.41,1161.82c0,0,8.02,44.82,36.71,35.59c31.14-10.01,57.84,6.49,85.65,6.49
			c27.81,0,49.21-9.88,55.65-36.58s22.3-49.97,28.93-65.54c6.63-15.57,7.74-71.21-28.93-90.12c-26.45-13.64-35.63-40.78-63.44-43.19
			c-27.81-2.41-41.16-14.65-77.86,16.5c-36.71,31.14-45.52,21.14-65.21,60.06c-11.49,22.71-2.32,61.77,11.82,78.97
			C1110.86,1141.21,1113.41,1161.82,1113.41,1161.82z"/>
		<path class="st17" d="M1303.84,1086.19c0,55.9-45.32,101.22-101.22,101.22c-40.61,0-75.63-23.91-91.76-58.43
			c-6.07-12.99-9.46-27.5-9.46-42.79c0-55.9,45.32-101.22,101.22-101.22c32.15,0,60.8,14.98,79.33,38.35c0,0.01,0,0.01,0.01,0.01
			C1295.66,1040.59,1303.84,1062.43,1303.84,1086.19z"/>
		<path class="st18" d="M1291.42,1066.1c0,55.9-45.32,101.22-101.23,101.22c-32.14,0-60.78-14.98-79.33-38.35
			c-6.07-12.99-9.46-27.5-9.46-42.79c0-55.9,45.32-101.22,101.22-101.22c32.15,0,60.8,14.98,79.33,38.35c0,0.01,0,0.01,0.01,0.01
			C1288.03,1036.32,1291.42,1050.82,1291.42,1066.1z"/>
	</g>
	<g>
		<path class="st1" d="M1645.78,494.23c8.73-11.14,40.34-25.47,40.34-25.47c-18.06-2.59-41.85,11.13-41.85,11.13
			c6.62-9.36,26.19-16.07,26.19-16.07c-45.7,7.86-66.11,27.3-74.42,38.71c-2.1,1.43-3.96,3.21-5.47,5.25
			c-2.8,3.77-4.45,8.43-4.45,13.49c0,12.51,10.14,22.65,22.65,22.65c9.55,0,17.72-5.91,21.05-14.28
			c10.57-15.91,35.23-42.09,35.23-42.09C1655.42,488.08,1645.78,494.23,1645.78,494.23z"/>
		<circle class="st17" cx="1608.77" cy="521.27" r="15.35"/>
	</g>
	<g>
		<path class="st19" d="M1686.7,1305.91c17.93-28.44,2.92-70.11,23.67-96.57c12.83-16.36,35.32-21.34,51.82-33.99
			c12.48-9.56,21.1-23.17,29.45-36.49c6.45-10.29,13.05-20.93,15.03-32.91c0.44-2.63,0.58-5.35,0.45-8.06
			c-23.06-9.34-48.26-14.5-74.67-14.5c-0.4,0-0.8,0.01-1.2,0.02c0.91,1.29,1.8,2.6,2.65,3.93c11.12,17.29,17.61,40.66,6.46,57.94
			c-10.04,15.57-30.62,20.4-49.14,20.61c-18.52,0.22-37.54-2.76-55.26,2.63c-29.11,8.87-47.99,38.18-76.5,48.84
			c-5.36,2.01-10.86,3.28-16.45,3.98c-6.19,19.23-9.55,39.74-9.55,61.04c0,36.36,9.76,70.44,26.79,99.77
			c16.37-15.95,35.73-28.81,56.97-37.29C1642.38,1334.83,1672.26,1328.82,1686.7,1305.91z"/>
		<path class="st20" d="M1635.97,1168.53c17.72-5.4,36.74-2.42,55.26-2.63c18.52-0.22,39.1-5.05,49.14-20.61
			c11.14-17.28,4.66-40.65-6.46-57.94c-0.85-1.33-1.74-2.63-2.65-3.93c-88.08,0.52-162.58,58.26-188.23,137.94
			c5.59-0.71,11.09-1.98,16.45-3.98C1587.98,1206.71,1606.86,1177.4,1635.97,1168.53z"/>
		<path class="st21" d="M1688.4,1406.86c25.12-11.51,51.94-22.75,79.4-19.77c17.21,1.87,33.48,9.27,50.71,10.91
			c17.24,1.64,37.52-4.97,43.09-21.37c6.53-19.22-10.14-37.81-24.97-51.66c-15.31-14.29-30.6-29.51-38.94-48.72
			c-8.33-19.21-8.23-43.5,5.54-59.28c14.96-17.14,40.77-19.65,59.09-33.14c10.25-7.55,17.75-18.63,21.31-30.83
			c-20.56-24.01-46.75-43.05-76.51-55.11c0.13,2.71-0.01,5.42-0.45,8.06c-1.99,11.98-8.58,22.62-15.03,32.91
			c-8.35,13.32-16.97,26.93-29.45,36.49c-16.5,12.65-38.99,17.62-51.82,33.99c-20.75,26.46-5.74,68.13-23.67,96.57
			c-14.44,22.91-44.32,28.92-69.47,38.96c-21.24,8.48-40.6,21.34-56.97,37.29c17.55,30.22,42.81,55.4,73.1,72.83
			c1.18-4.42,3-8.65,5.42-12.41C1649.97,1425.19,1669.6,1415.47,1688.4,1406.86z"/>
		<path class="st22" d="M1883.63,1153.01c-3.56,12.2-11.06,23.29-21.31,30.83c-18.32,13.49-44.13,16-59.09,33.14
			c-13.77,15.78-13.87,40.07-5.54,59.28c8.33,19.21,23.63,34.43,38.94,48.72c14.83,13.85,31.5,32.44,24.97,51.66
			c-5.57,16.39-25.85,23.01-43.09,21.37c-17.24-1.64-33.5-9.04-50.71-10.91c-27.46-2.99-54.29,8.26-79.4,19.77
			c-18.79,8.61-38.43,18.33-49.62,35.71c-2.42,3.76-4.24,7.99-5.42,12.41c29.18,16.79,63.02,26.39,99.1,26.39
			c109.9,0,198.99-89.09,198.99-198.99C1931.45,1232.99,1913.44,1187.8,1883.63,1153.01z"/>
	</g>
	<g>
		<circle class="st23" cx="1393.97" cy="701.83" r="180.4"/>
		<g class="st24">
			
				<ellipse transform="matrix(0.98 -0.1988 0.1988 0.98 -111.6955 291.1113)" class="st25" cx="1393.97" cy="701.83" rx="97.96" ry="26.98"/>
			<g>
				<path class="st1" d="M1417.85,730.62c-0.88-4.41,0.77-9.18-0.83-13.38c-1.72-4.52-6.56-6.86-10.62-9.5
					c-9.96-6.46-18.08-17.25-29.89-18.43c-8.74-0.87-17.02,3.93-25.75,4.92c-8.49,0.97-17.12-2.23-23.47-7.9
					c-2.16,9.28-2.42,19.16-0.4,29.11c7.51,37.05,43.64,60.98,80.68,53.47c14.14-2.87,26.36-9.9,35.66-19.57
					c-3.57-1.1-7.01-2.78-10.37-4.43C1426.43,741.74,1419.26,737.65,1417.85,730.62z"/>
				<path class="st26" d="M1441.92,671.83c-9.36-3.15-19.3,2.75-29.17,2.73c-9.36-0.02-17.86-5.34-25.15-11.22
					c-7.29-5.88-14.13-12.61-22.7-16.36c-2.68-1.17-5.61-1.98-8.57-2.33c-14.66,9.66-25.07,24.65-29.04,41.68
					c6.35,5.67,14.99,8.87,23.47,7.9c8.73-0.99,17.01-5.79,25.75-4.92c11.81,1.18,19.93,11.97,29.89,18.43
					c4.06,2.63,8.89,4.97,10.62,9.5c1.6,4.2-0.06,8.98,0.83,13.38c1.41,7.04,8.58,11.12,15.02,14.29c3.36,1.66,6.8,3.33,10.37,4.43
					c15.07-15.66,22.45-38.21,17.81-61.12c-0.38-1.87-0.83-3.7-1.36-5.5c-1.56-0.66-3.07-1.44-4.5-2.36
					C1450.74,677.52,1446.93,673.51,1441.92,671.83z"/>
				<path class="st5" d="M1380.36,634.75c-8.84,1.79-16.94,5.22-24.04,9.9c2.96,0.35,5.89,1.15,8.57,2.33
					c8.58,3.75,15.42,10.48,22.7,16.36c7.29,5.88,15.78,11.2,25.15,11.22c9.87,0.02,19.81-5.88,29.17-2.73
					c5.01,1.68,8.82,5.69,13.27,8.53c1.43,0.91,2.94,1.7,4.5,2.36C1449.88,648.85,1415.54,627.62,1380.36,634.75z"/>
			</g>
			<path class="st25" d="M1489.97,682.36c2.96,14.6-37.62,35.16-90.64,45.91c-53.02,10.75-98.4,7.63-101.36-6.97"/>
		</g>
	</g>
	<path class="st9" d="M1568.02,1276.44c16.53,0,29.93-13.4,29.93-29.93c0,16.53,13.4,29.93,29.93,29.93
		c-16.53,0-29.93,13.4-29.93,29.93C1597.95,1289.84,1584.55,1276.44,1568.02,1276.44z"/>
	<circle class="st18" cx="3064.58" cy="1202.83" r="2.34"/>
	<circle class="st18" cx="3092.67" cy="1213.11" r="2.34"/>
	<circle class="st18" cx="2911.54" cy="995.23" r="2.34"/>
	<circle class="st18" cx="1586.13" cy="802.18" r="2.34"/>
	<circle class="st18" cx="1597.95" cy="813.66" r="2.34"/>
	<circle class="st18" cx="1710.08" cy="995.56" r="2.34"/>
	<circle class="st18" cx="384.47" cy="1772.98" r="2.34"/>
	<circle class="st18" cx="1386.3" cy="1089.49" r="2.34"/>
	<circle class="st18" cx="1021.41" cy="692.3" r="2.34"/>
	<circle class="st18" cx="1900.08" cy="1500.19" r="2.34"/>
	<circle class="st18" cx="1394.86" cy="1435.52" r="2.34"/>
	<circle class="st18" cx="3258.45" cy="1432.54" r="2.34"/>
	<circle class="st18" cx="1670.32" cy="1542.16" r="2.34"/>
	<circle class="st18" cx="495.76" cy="1594.48" r="2.34"/>
	<circle class="st18" cx="1318.92" cy="613.02" r="2.34"/>
	<circle class="st18" cx="1038.01" cy="708.84" r="2.34"/>
	<circle class="st18" cx="1715.76" cy="368.85" r="2.34"/>
	<circle class="st18" cx="1574.37" cy="854.4" r="2.34"/>
	<circle class="st18" cx="3108.22" cy="1625.95" r="2.34"/>
	<circle class="st18" cx="1115.35" cy="1351.5" r="2.34"/>
	<circle class="st18" cx="510.38" cy="1561.47" r="2.34"/>
	<circle class="st18" cx="1422.49" cy="418.27" r="2.34"/>
	<circle class="st18" cx="2487.7" cy="842.33" r="2.34"/>
	<circle class="st18" cx="1722.82" cy="406.96" r="2.34"/>
	<circle class="st18" cx="1213.57" cy="909.5" r="2.34"/>
	<circle class="st18" cx="1117.69" cy="1322.93" r="2.34"/>
	<circle class="st18" cx="1686.13" cy="1507.16" r="2.34"/>
	<circle class="st18" cx="1987.55" cy="1306.37" r="2.34"/>
	<circle class="st18" cx="3194.62" cy="1026.8" r="2.34"/>
	<circle class="st18" cx="2595.33" cy="1770.63" r="2.34"/>
	<circle class="st18" cx="2495.22" cy="1042.62" r="2.34"/>
	<circle class="st18" cx="2640.45" cy="682.36" r="2.34"/>
	<circle class="st18" cx="2935.21" cy="847.72" r="2.34"/>
	<circle class="st18" cx="2027.23" cy="1437.86" r="2.34"/>
	<circle class="st18" cx="2929.51" cy="861.11" r="2.34"/>
	<circle class="st18" cx="2365.31" cy="1346.25" r="2.34"/>
	<circle class="st18" cx="2497.56" cy="858.77" r="2.34"/>
	<circle class="st18" cx="1392.52" cy="1127.16" r="2.34"/>
	<circle class="st18" cx="2359.57" cy="1316.7" r="2.34"/>
	<circle class="st18" cx="400.75" cy="1547.33" r="2.34"/>
	<circle class="st18" cx="1077.74" cy="1308.71" r="2.34"/>
</g>
</svg>
